<svg width="24" height="24" viewBox="0 0 24 24" fill="none" xmlns="http://www.w3.org/2000/svg">
<path d="M4.88233 6.17627H3.58822C2.90178 6.17627 2.24346 6.44896 1.75807 6.93434C1.27269 7.41973 1 8.07805 1 8.76449V20.4115C1 21.0979 1.27269 21.7562 1.75807 22.2416C2.24346 22.727 2.90178 22.9997 3.58822 22.9997H15.2352C15.9216 22.9997 16.58 22.727 17.0654 22.2416C17.5507 21.7562 17.8234 21.0979 17.8234 20.4115V19.1174" stroke="#0072DC" stroke-width="2" stroke-linecap="round" stroke-linejoin="round"/>
<path d="M16.5293 3.58836L20.4116 7.47069M22.204 5.63952C22.7137 5.12984 23 4.43857 23 3.71777C23 2.99697 22.7137 2.3057 22.204 1.79602C21.6943 1.28634 21.003 1 20.2822 1C19.5614 1 18.8701 1.28634 18.3605 1.79602L7.47054 12.6471V16.5295H11.3529L22.204 5.63952Z" stroke="#0072DC" stroke-width="2" stroke-linecap="round" stroke-linejoin="round"/>
</svg>
